# xmcd
#
# Track frame offsets:
#	150
#	10035
#	19187
#	30915
#	39622
#	52422
#	64025
#	75177
#	87877
#	96665
#	104850
#	117557
#
# Disc length: 1692 seconds
#
# Revision: 0
# Processed by: cddbd v1.4PL0 Copyright (c) Steve Scherf et al.
# Submitted via: audiograbber 1.81.02
#
DISCID=9a069a0c
DTITLE=Buck Owens - I Don't Care
DYEAR=1900
DGENRE=Country
TTITLE0=I Don't Care (Just As Long As You Love Me)
TTITLE1=Dang Me
TTITLE2=Don't Let Her Know
TTITLE3=Buck's Polka
TTITLE4=Understand Your Man
TTITLE5=Loose Talk
TTITLE6=You're Welcome Anytime
TTITLE7=Abilene
TTITLE8=Playboy
TTITLE9=Bud's Bounce
TTITLE10=Louisiana Man
TTITLE11=This Ol' Heart
EXTD=
EXTT0=
EXTT1=
EXTT2=
EXTT3=
EXTT4=
EXTT5=
EXTT6=
EXTT7=
EXTT8=
EXTT9=
EXTT10=
EXTT11=
PLAYORDER=
